<svg xmlns="http://www.w3.org/2000/svg" viewBox="0 18.190000534057617 108.9800033569336 32.909996032714844" data-asc="1.009765625" width="108.9800033569336" height="32.909996032714844"><defs/><g fill="#627ff4"><g transform="translate(0, 0)"><path d="M21.83 45.02Q20.00 46.41 18.16 47.20Q16.33 48.00 14.11 48.00Q13.38 48.00 12.70 47.73Q12.01 47.46 10.91 46.78Q9.30 48.90 7.68 50Q6.05 51.10 4.30 51.10Q3.44 51.10 2.66 50.79Q1.88 50.49 1.29 49.88Q0.71 49.27 0.35 48.36Q0 47.46 0 46.26Q0 44.80 0.33 43.10Q0.66 41.41 1.12 39.79Q1.59 38.18 2.04 36.82Q2.49 35.45 2.76 34.64Q3.25 33.62 3.99 33.17Q4.74 32.71 5.44 32.71Q5.76 32.71 6.09 32.82Q6.42 32.93 6.69 33.13Q6.96 33.33 7.13 33.59Q7.30 33.86 7.30 34.18Q7.30 34.45 7.20 34.64Q6.84 35.82 6.34 37.19Q5.83 38.57 5.40 39.97Q4.96 41.36 4.65 42.69Q4.35 44.02 4.35 45.12Q4.35 45.29 4.39 45.57Q4.44 45.85 4.52 46.11Q4.59 46.36 4.71 46.55Q4.83 46.73 4.98 46.73Q5.62 46.73 6.40 46.02Q7.18 45.31 8.11 44.07Q8.91 43.21 9.63 42.05Q10.35 40.89 11.00 39.67Q11.65 38.45 12.24 37.27Q12.84 36.08 13.42 35.14Q13.99 34.20 14.55 33.63Q15.11 33.06 15.70 33.06Q16.70 33.06 17.11 33.70Q17.53 34.35 17.53 35.25Q17.53 36.28 17.20 37.13Q16.87 37.99 16.31 38.90Q15.75 39.82 14.98 40.93Q14.21 42.04 13.31 43.58Q13.70 44.09 14.53 44.09Q15.41 44.09 16.35 43.87Q17.29 43.65 18.21 43.25Q19.14 42.85 20.06 42.27Q20.97 41.70 21.83 41.02Q22.19 40.80 22.51 40.80Q22.95 40.80 23.23 41.19Q23.51 41.58 23.51 42.19Q23.51 42.85 23.12 43.62Q22.73 44.38 21.83 45.02ZM26.12 29.37Q26.12 28.81 26.33 28.21Q26.54 27.61 26.95 27.12Q27.37 26.64 27.99 26.32Q28.61 26.00 29.47 26.00Q30.88 26.00 31.45 26.55Q32.01 27.10 32.01 27.93Q32.01 28.39 31.82 28.96Q31.64 29.52 31.27 29.99Q30.91 30.47 30.32 30.79Q29.74 31.10 28.93 31.10Q27.42 31.10 26.81 30.63Q26.20 30.15 26.12 29.37M23.44 34.86Q23.85 34.18 24.39 33.89Q24.93 33.59 25.49 33.59Q26.42 33.59 27.09 34.19Q27.76 34.79 27.76 35.72Q27.73 35.94 27.70 36.16Q27.66 36.38 27.54 36.60Q27.20 37.23 26.98 37.67Q26.76 38.11 26.57 38.49Q26.39 38.87 26.22 39.23Q26.05 39.60 25.81 40.11Q25.51 40.72 25.15 41.44Q24.78 42.16 24.45 42.92Q24.12 43.68 23.89 44.41Q23.66 45.14 23.66 45.75Q23.66 46.41 23.99 46.62Q24.32 46.83 24.93 46.83Q25.61 46.83 26.35 46.53Q27.10 46.24 27.86 45.78Q28.61 45.31 29.35 44.71Q30.08 44.12 30.73 43.51Q31.37 42.90 31.92 42.33Q32.47 41.77 32.84 41.33Q33.33 40.87 33.81 40.87Q34.25 40.87 34.53 41.26Q34.81 41.65 34.81 42.26Q34.81 42.82 34.53 43.46Q34.25 44.09 33.62 44.65Q32.37 45.92 31.08 47.08Q29.79 48.24 28.43 49.13Q27.08 50.02 25.71 50.56Q24.34 51.10 22.95 51.10Q20.97 51.10 19.84 50.09Q18.70 49.07 18.70 46.92Q18.70 45.80 19.02 44.73Q19.34 43.65 19.78 42.64Q20.21 41.63 20.70 40.69Q21.19 39.75 21.53 38.89Q21.66 38.57 21.96 37.92Q22.27 37.26 22.61 36.57Q23.00 35.77 23.44 34.86ZM38.96 36.74Q40.45 37.52 41.63 38.53Q42.80 39.53 43.62 40.64Q44.43 41.75 44.86 42.90Q45.29 44.04 45.29 45.14Q45.29 46.53 44.49 47.64Q43.70 48.75 42.42 49.52Q41.14 50.29 39.49 50.70Q37.84 51.10 36.16 51.10Q34.89 51.10 33.69 50.82Q32.50 50.54 31.51 49.95Q30.52 49.37 29.81 48.45Q29.10 47.53 28.81 46.26Q28.76 46.07 28.76 45.95Q28.76 45.29 29.22 44.81Q29.69 44.34 30.25 44.34Q30.52 44.34 30.85 44.43Q31.18 44.53 31.35 44.87Q31.67 45.46 32.24 45.92Q32.81 46.39 33.52 46.72Q34.23 47.05 35.02 47.23Q35.82 47.41 36.57 47.41Q37.35 47.41 38.07 47.27Q38.79 47.12 39.34 46.80Q39.89 46.48 40.21 46.00Q40.53 45.51 40.53 44.80Q40.53 43.55 39.97 42.50Q39.40 41.46 38.51 40.56Q37.62 39.67 36.49 38.90Q35.35 38.13 34.23 37.43Q34.11 37.35 33.86 37.00Q33.62 36.65 33.62 36.28Q33.62 35.99 33.76 35.82Q34.16 35.30 34.67 34.77Q35.18 34.23 35.77 33.78Q36.35 33.33 37.04 33.04Q37.72 32.76 38.45 32.76Q38.99 32.76 39.45 32.91Q39.92 33.06 40.23 33.29Q40.55 33.52 40.73 33.80Q40.92 34.08 40.92 34.33Q40.92 34.67 40.75 34.99Q40.58 35.30 40.30 35.60Q40.01 35.89 39.66 36.18Q39.31 36.47 38.96 36.74ZM44.53 46.63Q45.12 45.39 45.87 43.86Q46.63 42.33 47.40 40.83Q48.17 39.33 48.85 37.98Q49.54 36.62 50 35.67L58.06 19.82Q58.20 19.51 58.51 19.21Q58.81 18.92 59.20 18.69Q59.59 18.46 60.03 18.32Q60.47 18.19 60.91 18.19Q61.99 18.19 62.40 18.59Q62.82 18.99 62.82 19.58Q62.82 20.12 62.55 20.72Q62.28 21.31 61.94 21.83Q60.86 23.66 59.88 25.52Q58.89 27.39 57.90 29.28Q56.91 31.18 55.91 33.04Q54.91 34.91 53.81 36.74Q54.49 36.08 55.26 35.38Q56.03 34.67 56.93 34.08Q57.84 33.50 58.91 33.12Q59.99 32.74 61.30 32.74Q62.08 32.74 62.79 32.89Q63.50 33.03 64.04 33.36Q64.58 33.69 64.89 34.27Q65.21 34.84 65.21 35.67Q65.21 36.77 64.88 37.68Q64.55 38.60 64.04 39.42Q63.53 40.23 62.92 40.98Q62.30 41.72 61.76 42.49Q61.21 43.26 60.80 44.09Q60.40 44.92 60.30 45.90Q60.30 45.95 60.29 46.00Q60.28 46.04 60.28 46.09Q60.28 46.58 60.61 46.70Q60.94 46.83 61.45 46.83Q62.11 46.83 62.87 46.57Q63.62 46.31 64.39 45.89Q65.16 45.46 65.93 44.92Q66.70 44.38 67.40 43.82Q68.09 43.26 68.68 42.74Q69.26 42.21 69.68 41.82Q69.90 41.63 70.14 41.53Q70.39 41.43 70.61 41.43Q71.04 41.43 71.35 41.76Q71.66 42.09 71.66 42.65Q71.66 43.16 71.30 43.82Q70.95 44.48 70.09 45.14Q68.75 46.31 67.36 47.39Q65.97 48.46 64.55 49.29Q63.13 50.12 61.73 50.61Q60.33 51.10 58.98 51.10Q57.25 51.10 56.20 50.31Q55.15 49.51 55.15 47.80Q55.15 46.56 55.58 45.45Q56.01 44.34 56.63 43.30Q57.25 42.26 57.96 41.30Q58.67 40.33 59.20 39.40Q59.50 38.99 59.66 38.64Q59.81 38.28 59.81 37.87Q59.81 37.50 59.62 37.27Q59.42 37.04 59.01 37.04Q57.57 37.04 56.35 37.74Q55.13 38.45 54.10 39.55Q53.08 40.65 52.20 41.96Q51.32 43.26 50.56 44.46Q50.22 45.00 49.87 45.69Q49.51 46.39 49.13 47.12Q48.75 47.85 48.34 48.57Q47.92 49.29 47.47 49.85Q47.02 50.42 46.52 50.76Q46.02 51.10 45.48 51.10Q44.63 51.10 44.17 50.60Q43.70 50.10 43.70 49.34Q43.70 48.78 43.90 48.16Q44.09 47.53 44.53 46.63ZM78.44 37.16Q77.29 37.16 76.22 37.74Q75.15 38.33 74.32 39.28Q73.49 40.23 73.00 41.42Q72.51 42.60 72.51 43.80Q72.51 44.29 72.57 44.81Q72.63 45.34 72.85 45.78Q73.07 46.22 73.47 46.51Q73.88 46.80 74.56 46.80Q75.10 46.80 75.82 46.33Q76.54 45.85 77.31 45.10Q78.08 44.36 78.81 43.47Q79.54 42.58 80.13 41.72Q80.71 40.87 81.08 40.19Q81.45 39.50 81.45 39.18Q81.45 38.72 81.13 38.34Q80.81 37.96 80.35 37.70Q79.88 37.43 79.36 37.29Q78.83 37.16 78.44 37.16M95.36 43.46Q94.92 43.87 94.19 44.60Q93.46 45.34 92.52 46.19Q91.58 47.05 90.52 47.91Q89.45 48.78 88.34 49.49Q87.23 50.20 86.16 50.65Q85.08 51.10 84.13 51.10Q83.28 51.10 82.67 50.73Q82.06 50.37 81.65 49.78Q81.25 49.19 81.05 48.45Q80.86 47.71 80.86 46.92Q80.86 46.41 80.93 45.91Q81.01 45.41 81.18 44.97Q80.42 46.00 79.46 47.08Q78.49 48.17 77.38 49.06Q76.27 49.95 75.06 50.52Q73.85 51.10 72.61 51.10Q71.97 51.10 71.13 50.84Q70.29 50.59 69.53 50Q68.77 49.41 68.26 48.49Q67.75 47.56 67.75 46.22Q67.75 45.21 68.05 43.82Q68.36 42.43 68.98 40.93Q69.60 39.43 70.57 37.96Q71.53 36.50 72.85 35.34Q74.17 34.18 75.85 33.46Q77.54 32.74 79.61 32.74Q80.69 32.74 81.49 33.01Q82.30 33.28 82.86 33.59Q83.50 33.98 83.98 34.45Q84.40 34.23 84.84 34.03Q85.21 33.86 85.61 33.73Q86.01 33.59 86.30 33.59Q87.23 33.59 87.82 34.11Q88.40 34.62 88.40 35.23Q88.40 35.40 88.38 35.50Q88.26 35.96 88.00 36.67Q87.74 37.38 87.43 38.24Q87.11 39.11 86.78 40.05Q86.45 40.99 86.18 41.89Q85.91 42.80 85.74 43.59Q85.57 44.38 85.57 44.95Q85.57 45.68 85.82 46.15Q86.06 46.63 86.65 46.63Q87.01 46.63 87.51 46.40Q88.01 46.17 88.60 45.78Q89.18 45.39 89.81 44.89Q90.43 44.38 91.02 43.87Q92.38 42.65 93.92 41.09Q94.31 40.77 94.68 40.77Q95.17 40.77 95.50 41.25Q95.83 41.72 95.83 42.31Q95.83 42.99 95.36 43.46ZM96.92 43.43Q96.66 43.99 96.40 44.74Q96.14 45.48 96.14 46.07Q96.14 46.44 96.29 46.66Q96.44 46.88 96.85 46.88Q97.36 46.88 98.13 46.57Q98.90 46.26 99.79 45.76Q100.68 45.26 101.65 44.62Q102.61 43.97 103.56 43.27Q104.52 42.58 105.38 41.88Q106.25 41.19 106.93 40.60Q107.13 40.43 107.40 40.36Q107.67 40.28 107.86 40.28Q108.35 40.28 108.67 40.63Q108.98 40.97 108.98 41.53Q108.98 42.04 108.64 42.68Q108.30 43.31 107.45 43.92Q105.88 45.36 104.30 46.66Q102.71 47.95 101.14 48.94Q99.56 49.93 98.01 50.51Q96.46 51.10 95.00 51.10Q93.99 51.10 93.32 50.83Q92.65 50.56 92.25 50.10Q91.85 49.63 91.67 49.00Q91.50 48.36 91.50 47.66Q91.50 46.46 91.86 45.20Q92.21 43.95 92.70 42.90Q93.55 40.99 94.43 39.11Q95.31 37.23 96.04 35.67L103.44 19.92Q103.88 18.97 104.63 18.58Q105.37 18.19 106.13 18.19Q106.88 18.19 107.51 18.60Q108.13 19.02 108.13 19.95Q108.13 20.39 107.92 20.87Q107.71 21.36 107.40 21.92Q106.79 23.07 105.94 24.73Q105.10 26.39 104.14 28.34Q103.17 30.30 102.16 32.41Q101.15 34.52 100.18 36.52Q99.22 38.53 98.38 40.32Q97.53 42.11 96.92 43.43Z"/></g></g></svg>